:SAMPLES-PER-SECOND 30
:FULLY-SPECIFIED
:DEGREES
630
root  52.7482 31.2635 -5.03986 -16.2603 83.8406 -28.1288
RightUpLeg  -62.0484 -1.62082 2.23567
RightLeg  65.2676 0.709021 1.04967
RightFoot  -10.214 -0.0368146 -3.33204
RightToes  2.32829e-010 0 -3.6325e-017
Spine  77.6639 -3.97102 6.41401
Spine1  -1.90146 2.36967 -4.27598
HEad  -60.9534 26.7255 24.7581
LeftShoulder1  1.56993 -10.8767 -2.8091
LeftArm  -88.2417 -64.2903 9.54374
LeftForeArm  3.00328 -23.6762 -4.8751
LeftHand  -0.0367421 3.10369 1.14188
RightShoulder  0.426795 3.63933 -2.82575
RightArm  -91.7633 62.1063 -55.3538
RightForeArm  -35.5195 -4.31973 -3.67559
RightHand  0.118919 8.36785 0.572756
LeftUpLeg  -67.0067 15.9009 -2.83723
LeftLeg  58.1472 -4.85286 -7.83945
LeftFoot  -0.841393 -0.744558 8.11893
LeftToes  -3.54706e-010 1.16038e-010 5.28031e-012
631
root  53.2767 31.244 -5.33565 -16.4342 83.3834 -29.789
RightUpLeg  -63.0433 0.391817 0.997297
RightLeg  65.8888 0.150648 -0.27711
RightFoot  -10.6861 -0.0572968 -2.44068
RightToes  2.32829e-010 0 -3.6325e-017
Spine  78.4756 -3.74677 5.99335
Spine1  -2.53567 2.46036 -4.28707
HEad  -62.0776 24.9641 22.4883
LeftShoulder1  1.55853 -11.1374 -2.50165
LeftArm  -89.9836 -62.695 11.7095
LeftForeArm  2.85703 -25.8013 -5.39093
LeftHand  -0.0577379 2.86677 1.74234
RightShoulder  0.363425 4.05586 -4.17257
RightArm  -90.9724 60.6111 -54.9714
RightForeArm  -36.6286 -4.04198 -4.13939
RightHand  0.0998327 9.37414 0.382694
LeftUpLeg  -68.3736 15.5613 -2.9694
LeftLeg  59.5085 -4.26525 -7.23347
LeftFoot  -2.32948 -0.620165 8.04943
LeftToes  -3.54706e-010 1.16038e-010 5.28031e-012
632
root  53.7251 31.3348 -5.69669 -18.8479 82.7728 -32.3345
RightUpLeg  -62.2388 2.01994 -0.0312275
RightLeg  65.8149 -0.192123 -1.12381
RightFoot  -11.6056 -0.0803673 -0.766961
RightToes  2.32829e-010 0 -3.6325e-017
Spine  80.171 -4.37957 6.05697
Spine1  -2.88492 2.10117 -5.06715
HEad  -63.3261 26.2182 22.9358
LeftShoulder1  1.51543 -11.5623 -1.83673
LeftArm  -90.1236 -60.6788 13.2586
LeftForeArm  0.558732 -27.3472 -5.86235
LeftHand  -0.113314 1.53733 3.25777
RightShoulder  0.292924 4.30746 -5.3885
RightArm  -90.4805 59.7518 -53.6505
RightForeArm  -37.1368 -3.99947 -4.84022
RightHand  0.147261 9.46513 0.745114
LeftUpLeg  -67.9787 15.3316 -2.63252
LeftLeg  60.3375 -3.78071 -6.58388
LeftFoot  -3.58712 -0.548996 8.38437
LeftToes  -3.54706e-010 1.16038e-010 5.28031e-012
633
root  54.1047 31.3684 -5.95589 -20.7993 82.5253 -35.3054
RightUpLeg  -62.5975 3.51254 -0.992838
RightLeg  65.8893 -0.786283 -2.58373
RightFoot  -12.4599 -0.078591 0.662144
RightToes  2.32829e-010 0 -3.6325e-017
Spine  81.94 -5.12244 6.2442
Spine1  -5.65513 1.918 -6.58237
HEad  -62.9772 23.964 22.4261
LeftShoulder1  1.4955 -12.1255 -1.2755
LeftArm  -88.9616 -59.6659 12.6681
LeftForeArm  -1.08597 -28.2618 -6.16703
LeftHand  -0.0467832 2.95637 1.30901
RightShoulder  0.243029 4.81294 -6.32391
RightArm  -87.4517 59.489 -49.3206
RightForeArm  -39.2609 -3.85171 -5.17073
RightHand  0.167983 9.16146 0.941373
LeftUpLeg  -68.7321 14.7528 -2.47166
LeftLeg  61.0311 -3.35518 -5.95995
LeftFoot  -4.60068 -0.431594 7.79627
LeftToes  -3.54706e-010 1.16038e-010 5.28031e-012
634
root  54.4022 31.3988 -6.18193 -25.0325 82.337 -40.4651
RightUpLeg  -62.8201 4.64436 -1.45795
RightLeg  65.6287 -1.12634 -3.3748
RightFoot  -13.2715 -0.0466173 2.42307
RightToes  2.32829e-010 0 -3.6325e-017
Spine  82.1716 -4.75732 6.77531
Spine1  -5.4142 2.46674 -5.42456
HEad  -63.999 21.5649 20.106
LeftShoulder1  1.46041 -12.3246 -0.887927
LeftArm  -91.808 -59.8496 13.4084
LeftForeArm  -1.59316 -28.7289 -6.30669
LeftHand  -0.01142 3.77189 -0.620444
RightShoulder  0.174197 5.73426 -7.53078
RightArm  -83.4602 57.2968 -47.5898
RightForeArm  -42.4863 -3.75096 -5.03343
RightHand  0.279142 8.6078 1.92285
LeftUpLeg  -69.4216 14.2424 -2.14001
LeftLeg  61.5273 -3.13515 -5.6577
LeftFoot  -5.2866 -0.386239 7.8957
LeftToes  -3.54706e-010 1.16038e-010 5.28031e-012
635
root  54.6013 31.5141 -6.33751 -21.8083 82.5417 -36.8715
RightUpLeg  -61.9445 5.59433 -2.90839
RightLeg  65.4306 -1.47371 -4.17309
RightFoot  -14.316 0.0152196 4.3908
RightToes  2.32829e-010 0 -3.6325e-017
Spine  83.7024 -4.90965 6.16161
Spine1  -6.17532 2.22985 -6.28699
HEad  -63.7029 20.4377 20.31
LeftShoulder1  1.43901 -12.608 -0.551472
LeftArm  -92.153 -60.074 14.1378
LeftForeArm  -2.05469 -28.9218 -6.3792
LeftHand  -0.0279927 3.11738 0.639479
RightShoulder  0.100302 6.46214 -8.5316
RightArm  -80.4781 56.459 -42.4961
RightForeArm  -44.6327 -3.53751 -5.77852
RightHand  0.351978 8.73005 2.52691
LeftUpLeg  -68.505 14.3464 -2.96131
LeftLeg  61.3127 -3.16079 -5.65206
LeftFoot  -5.74781 -0.35104 7.87772
LeftToes  -3.54706e-010 1.16038e-010 5.28031e-012
636
root  54.7328 31.5517 -6.4274 -24.4029 82.9101 -39.0935
RightUpLeg  -61.3449 5.97102 -3.41943
RightLeg  65.691 -1.62221 -4.58632
RightFoot  -14.262 0.0336974 5.12463
RightToes  2.32829e-010 0 -3.6325e-017
Spine  84.6796 -4.83789 6.24959
Spine1  -6.38653 2.56969 -6.03213
HEad  -63.9498 18.6766 18.965
LeftShoulder1  1.42088 -12.8686 -0.263068
LeftArm  -92.2145 -61.0084 13.0034
LeftForeArm  -2.42143 -29.9907 -6.66258
LeftHand  -0.0420612 3.2249 1.3458
RightShoulder  0.0255397 7.49259 -9.4242
RightArm  -76.9116 54.951 -38.3858
RightForeArm  -48.0879 -3.29882 -6.10659
RightHand  0.19889 10.2022 1.05123
LeftUpLeg  -67.9949 14.0522 -2.94236
LeftLeg  61.5117 -3.24891 -5.8758
LeftFoot  -5.91573 -0.318946 7.47401
LeftToes  -3.54706e-010 1.16038e-010 5.28031e-012
637
root  54.7967 31.538 -6.40561 -23.6912 83.443 -38.5594
RightUpLeg  -61.7832 6.47152 -4.32159
RightLeg  66.3232 -1.7273 -4.99182
RightFoot  -14.0166 0.0489365 6.16302
RightToes  2.32829e-010 0 -3.6325e-017
Spine  84.4425 -4.60823 5.7239
Spine1  -5.84809 2.56505 -6.25309
HEad  -63.8104 17.1424 18.361
LeftShoulder1  1.39591 -13.1069 0.0499021
LeftArm  -92.1982 -61.2013 12.9367
LeftForeArm  -3.57751 -30.5153 -6.85699
LeftHand  -0.0624627 2.18448 1.87931
RightShoulder  -0.0746808 8.12221 -10.4291
RightArm  -75.5939 53.912 -33.6201
RightForeArm  -47.9706 -2.5801 -7.23777
RightHand  0.303035 10.1724 1.83973
LeftUpLeg  -68.2145 14.0613 -3.59311
LeftLeg  61.4592 -3.40154 -6.1623
LeftFoot  -5.61782 -0.353937 7.74452
LeftToes  -3.54706e-010 1.16038e-010 5.28031e-012
